<?xml version="1.0" encoding="utf-8"?>
<!-- Generator: Adobe Illustrator 21.0.0, SVG Export Plug-In . SVG Version: 6.00 Build 0)  -->
<svg version="1.1" id="Layer_1" xmlns="http://www.w3.org/2000/svg" xmlns:xlink="http://www.w3.org/1999/xlink" x="0px" y="0px"
	 viewBox="0 0 720 720" style="enable-background:new 0 0 720 720;" xml:space="preserve">
<style type="text/css">
	.st0{fill:#1A1A18;}
</style>
<g>
	<path class="st0" d="M679.5,533.9c1.7-1.4,2-4.5,0.9-8c-2.4-7.3-2.1-15.4-1.7-23.1c0.3-6.4,10.5-6.7-0.7-19.2
		c-6.1-6.8,1-8-4.2-11.5c4.1-4.4-1.6-13.8-3.7-18.2c-9-19.5-8.2-22.7-7.7-42.7c0.6-22.5-3.4-11.8-11.3-21.6
		c-15.6-19.6-22.3-2.9-25.9-7.4c-17-20.8-26.6,3.4-31.7-3c-17.8-22.1-33,5.1-37.2,3c-6-3.1-18.6-63.4-26-69.9
		c0.7-0.3,1.4-0.7,2.1-1.5c1.8-2.2,8.9-10.9,11.7-17.6c6-7.8,11-15.7,12.1-26.1c2.2-21.3-5.6-13.6,13-33.1
		c17.7-18.6,16-57.2,17.9-81.5c0.3-4.1-0.7-11.3-0.1-13.3c2.6-8.8,0.1-8.1-4.5-16.9C559.2,78,563,71.3,520.8,38.7
		c-10.4-7.9-31.8-19.7-44.1-23.9c-4.5-1.5-45.7-8-49.7-7.9l0.2,0c-21.7-3.4-45.9-4.6-61.6,11.1c-13.2,13.2-26.9,35.2-40.4,50.3
		c-13.3,14.8-17.5,27.8-22.3,46.9c-5.8,23.1-11.1,72-6.2,95.1c2.2,10.4,0.2,9-4.1,18.2c-3.1,6.7-5.5,20-3.9,29.6
		c-0.3,0.3-0.5,0.7-0.8,1.1c-4.8,6.5-5.3,10.6-7.2,17.9c-3.3,0.4-6.8-6.7-20.4-2c-6.3,2.2-3.2,5.7-6.3,12.7
		c-3.7,8.4-7.2,14.1-10.7,23.5c-1.9,5-7.5,24.5-9.7,27.5c-5.9,8-5.5,8.3-6.6,14.3c-1.7,4.4-2.4,9.3-6.4,15.1
		c-16.6,24.3-29.4,31.5-50.6,49.7c-6.1,5.2-29.7,32.8-30.2,39.8c-1-1.5-2.2-3.4-3.6-6.2c-9.5-18.7-7.9-5.7-8.2-27
		c-1.4-103.2-1.5-206.8-1.1-310.1c0-11,2-16.9-11.7-20.8c-22.2-6.3-18.4,16.2-18.4,30.2c0,67.6,1.4,135.6,1.9,203.2l0,3.3
		c0.3,35.9,1.6,72.9,0.6,108.6c-5.3,1.4-4.8-12.1-5.3-15.4c-11.8-78-22.2-156.6-34.3-234.5c-1.5-9.4-4-29.9-18.7-25.3
		c-7.7,2.4-9.5,9.4-10.4,16.4c-0.5,12.4,9.3,62.4,11.7,78.6c5.9,39.5,11.8,79,17.8,118.5c1.1,7.8,11.4,71.3,9.5,73.3
		c-5.1,5.6-3.6-4.4-4.9,11.9c-0.8,9.6-1.8,18.6-2.2,28.2c17,0.3,13.1,2.5,16,21.7c0.5,3.1-0.4,2.5-3.6,3.8
		c2.3,16.2,3.9,24.5,3.3,41.3c-1,21.4,0.7,8.9,3.6,20.2c8,32,14.3,68,20.9,100.8c3.1,15.4,3.9,20.5,4.6,36.3
		c18.1,0.4,36.4,0.5,54.5,0c-0.6-3.1-3.2-15.2-6.1-28.4c0.9,1,1.8,2,2.8,3c8.5,9.3,13.5,9.3,21.8,16c4.8,3.9,9,11.8,6.8,4.9
		c-13.8-42.1-10.7-27,7.7,0.8l2,2.3c2.7,1.7,18.5,0.9,22.5,0.8c-6.4-6.6-24.1-23.2-26.6-30.8c-4.2-13.1-0.9-13.2-6-6.2
		c-4.8-3.2-11.2-7.8-13.6-13.2c-1.3-3,1.6-40.4,2.6-43.9c2.3-7.6,3.3-6.1,10.6-4.6c14.6,3.1-6.8-3-9.7-6.9c-2.5-3.5,0.2-2.6,3.3-2.7
		c-1.4-1.5-5.3-4.7-7.5-3.8c-4.8,2-2.5,48.2-5.4,56.3c-2.3,6.3-19.2-12.2-21.4-14.2c-3.4-3.1-5.5-5.1-6.7-5.9
		c-1.6-1.9-2.9-3.5-3.1-4.2c-0.5-13.3-0.4-27.5-0.3-41.7c0.2-0.1,0.4-0.4,0.6-1.1c4.6-12.6,20.8,3.2,25.7,7.7c5,4.6,3.9,16.7,5.6,1
		c-6.6-5.3-12.7-10-19.2-15.7c-7-6.8-10.7-14.7-12.4-16.3c0-4.3,0.1-8.5,0.1-12.6c0-11.9,0.2-24.1-0.1-35.9c-3-1.1-5.1-1.9-6.6-2.7
		c0.3-0.1,0.5-0.4,0.5-0.9c1.1-20.3,10.5-50.5,22.4-66.8c2.6-3.6,27.4-37.3,31.2-33.3c2.1,2.1-4.2,11-5.5,13.4
		c-14.7,27-22.5,25.8-31.5,60.7c-3.9,15-5.6,28.9-5.2,44.3c2.2-11.2,4.2-30.9,9.6-44.9c4.2-5,9.3-13.9,13.5-19.7
		c12-15.6,28.3-28.5,38.5-42.9c5.3-7.5,1-13.7,3.4-24.3c2.3-10.6,5.1-16.9,9-23c5.2-7,22.5-33.1,27-35.7c3-1.8,18.3-2.7,20.2-3.9
		c-3.6-1-11.3-1.2-17.4-0.5c2.6-4,3.6-9.9,4.9-14.1c8.3-26.2,6.9-21.6,32.4-20.9c21.4,0.6,32.4,6.2,41.7,16.2
		c-3.4-1.8-0.7,3.1,3.4,12.2c4.8,10.6,9.1,20.7,6.8,32.3c-14.3-5.7-29.8-18.5-41.2-21.6c-4.3-1.2-6.6-2-11.2-2.4
		c-18.2-1-9.4-0.4,2.7,3.6c19.4,6.4,12.3,5.7,25,18.8c11.6,11.9,20.3,5.3,11.7,11.6c-0.6,0.1-1.1,0.2-1.7,0.3
		c-4.4,0.5-32.6,8.4-32.8,8.4c-9.7,3.8-22,8.6-30.1,14.9c-10.1,7.9-25.9,18.4-33.1,28.4c-5.6,7.8-8.8,9.8-10.8,19
		c-0.5,2.5-9.5,8.7-11.6,11.6c-19.2,25-35.4,71.1-49.5,100.7c-4.1,8.7-6.2,10-0.9,18.6c4.5,7.3,24.8,19.9,35.7,26.2
		c0.6,1.1,0.9,2.7,1.4,5.4c1.4,7.9,75.6,26.1,86.3,28.9c-19.2-2.3-42.3-7.9-60.8-13.7c-20.3-6.4-9.3-4.7-7.3,3.9
		c3.4,14.7,5,32.5-3.6,45.7c13.3,4.6,26.5,9.3,39.8,13.5c22.3,7.1,41.6,11.4,63.8,17.3c-25.9-4.4-46-8.7-71-17.3
		c-26.4-9.1-19.6-8.2-1.5,2.2c14,8,23,18.3,37.5,23.5c13.4,3.5,58.5,1.5,75.6,1.9c10,0.2,10.7,2,11.7-4.4
		c2.8-17.8,36.3-36.9,50.5-46.6c-19.6,9-35.6,18.2-50.4,34.3c-10.5-6-36.8-53.6-43-65.7c-4.6-9.1-52-100.8-62.2-90.6
		c-5.3,5.3-3.4,17.1-2.7,26.6c-2.7-6.8-3.7-12.5-6.4-20.1c-3.3-9.4-4.9-15.9-7.6-25.1c-3.8-13-7.7-6.9-5.7-3.7
		c3.8,6.1,10.4,29.1,12,36.6c-3.3-1.4-14-18.8-15.8-22c-3.2-5.8-5.4-31.1,5.4-28.3c11.3,2.8,9,17.8,10.7,25.5
		c4.3,20.1,0.2-2.4,1.4-8.2c1.4-6.3,16.8,15,18.3,16.7c-12.5-20.6-27-39.6-38.4-60.8c-13.1-24.3-0.8,1.5,2.5,9.5
		c2.1,5.1,4.1,7.2,0.6,11c-6.8,7.3-7.6,7-9.7,16.6c-1.6,7.2-7.7,12-3.7,10.4c7.2-3-6.2,5.5-5.4,12c6.7-7.6,10.7-14.3,4.5-0.4
		c-2.9,6.7-0.7,12.8,3.3,18.6c8.4,12.2,13.3,17.2,20.6,31.3c1.1,2.2,1.6,3.8,1.9,5c-14-10.6-32.7-46.7-33.8-47.4
		c-1.5-0.9-3.4,1.3-3.4,3.5c-0.2,6.2,19.2,29.4,23.6,35.5c10.7,14.6,5.9,16.1,21.9,30.7c3.5,3.2,8,5.5,2.9,4.3
		c-13.7-3.3-47.7-17.6-58.5-26.2c1.4-14.1,7.1-20,10-31c-1.1,0.6-14.8,29.7-17.8,30.4c-6.9,1.6-8.7-28.7-9.4-33.6
		c-1.1,14.5-0.8,13.7,1.1,27.4c0.9,6.2,0.2,4.8,3.4,8.2c-0.9,1.1-1.4,1.7-1.6,2.1c-12-9-26.7-21.7-23.8-31c4.7-15,16.6-38.7,23.5-54
		c8.2-18.2,20.2-45.7,34.7-59.1c9.5-8.7,3.8-6.4,7.9-13.7c6.5-11.4,23.8-25.9,34.6-33.7c10.6-7.7,7.2-7.1,19.1-8.7
		c0.1,0,0.2,0,0.3-0.1c-1.3,0.7-3.2,1.8-5.8,3.3c-12.3,7.4-37.7,35.5-46,47.9c-4.2,6.2-7.5,7.9-2.7,8.3c5,0.4,11.6,11,14.4,14.8
		c26.9,37.1,52,78.6,73,119.3c12.1,23.4,33.6,65.5,50.5,84.3c2.9,3.3,0.6,4.7-2.4,3.1c-9.3-4.9-61.5-104.2-71.5-122
		c-17.2-30.7-29-48.9-50.8-76.6c-0.5-0.7-14-19.3-8.3-9.7c15.7,26.2,33.9,53.2,48.7,79.3c19.5,34.3,39,68.2,57.6,103
		c8.2,15.4,20.1,27.2,27.5,41.2l0.7,1.1c0.8-0.7,0.5-1.3,0.9-2.6c2-8.8,29.5-26.8,37.4-32.8c-7.7,2-24.8,14.3-32.6,19
		c-5-2.6,9.7-14.1,11.1-15.2c4.2-3.3,28.7-19.5,9.7-8.5c-6,3.5-24,17.1-30.2,13.4c-6.7-3.9-47.5-81.4-53.8-93.6
		c-11.8-22.7-23.5-40.8-36.5-62.6c-5.1-8.5-7.7-8.6-4-15.1c24.2-42.5,46.9-70.9,92.8-91.1c1.6-0.7,21.2-7.1,12.4-5.6
		c-26.3,4.4-49.1,21.1-68.5,38.5c-19.8,17.7-26.8,39-42.8,55c-7.2-5.8-11.7-11.7-17-19.2c-2.8-4.1-12.9-16.6-11-21.6
		c5.8-14.8,26.5-35.4,38.3-46.3c3.8-3.5,11-9.1,11.6-10.3c3.1-1.5,6.6-4.4,9.9-6.6c2.4-0.9,6-2.2,10.1-3.7
		c21.1-7.7,40.7-6.8,62.7-3.3c30.3,5.1,46.4,12.1,67.7,34.8c4.1,4.3,5.8,6.9,6.6,12.7c-27.6-10.6-55.8-12.7-76.5,12.5
		c-21.8,26.5-8,64.1,12,87.4c4.8,5.6,13.6,15,15.1,22.1c-1.1,10.1-34,10.6-41.2,10.3c-24.9-1.2-15.8-0.9,4.2,17.9
		c11.5,10.8,13,19.3,21.4,31.7c4.9,6.8,21.4,27.7,29.1,29.4c9.4,2.1,15.1,2.3,23.8-1.2c24.9-9.7,48.5-15,75.5-12.1
		c3.3,0.4,15.9,5,5.9,5c-44.9-0.2-60.2,3.7-99.3,25.4c42-15.4,60.7-24.9,106.9-19.7c1.2,0.1,2.3,0.5,3.2,1c-1.1,1.7-2.9,2.8-6.1,2.6
		c-4.6-0.2-17.2-1.9-21.2,0l2,0.4c0.6,0.1,35.1,4.7,17.1,5.4c-5.6,0.2-12.4,1.1-15.8,6.1c1.7-0.3,21.3-4.1,20,0.9
		c-0.6,2.2-14.1,4.1-18.9,7.3c-15,9.7-16.1,16.2-24.5,31.2c-4,7.1-8,14.1-11.8,21.2c5.3,1.3,6.1-3.2,9.6-8.6
		c5-7.5,19.9-38.1,27.9-40.6c1.4-0.4,9.5-1.9,10.4-1.4c-7.8,11-10.9,12.8-17.1,26.4c-4.2,9.3-7.6,15.2-12.1,24
		c6.4,2,9.7,2.5,13.7-4.1c5.4-8.9,10.6-27.2,15.2-36.9c3-6.3,6.4,0.2,8.9-3.5c4.6-6.8,11.5-0.5,9.9-5.5c-1.5-4.5-3.3-15.7,3.6-16.3
		c3.2-0.3,20.5,0.1,13.3-7.1c-0.9-0.9-1.8-1.3-2.8-1.4c0-1.2-0.3-2.4,1.5-3.4c13-4,41,15.9,16.9,0.7c12-2.3,12,8.8,10.7-2.7
		c-1.2-11.1,6.6-22.3,17.8-22.9c11.7-0.7-4.3-0.8-6.6-9.4c-4.6-17.1,22,0.7,26.6,3.6c-2.8-4.2-6.5-7.3-10.4-10.4
		c-8-6.4-20.9-9-16.6-20.8c6.1-17.2,32.4-17.7,47.5-17.2c11.2,0.4,19.1,1.5,25.5,3.8c-2.9-0.6-5.6-0.7-8.2-0.1
		c0.2,6.4,2.1,18.5,1.2,23.8c-1.7,9.9-2.6-3.1-4.7-3.9c-3.1,14.9,3,22-7.3,13.1c-4.9-4.2-30.7-22.8-25.6-18
		c14.2,13.2,32.5,23,29.7,46.6c-12-8.5-16.2-17.3-29.8-25.3c-22.1-13-12.5-8.1-1.3,1.2c5.1,4.2,35,33.2,30.1,40.5
		c-2.3,3.5-3.8,0.7-5.3-1.3c-9.7-13-10.5-15-24.6-25.2c-17.5-12.7-9.6-7.4,0.7,2.1c31.6,29.4,25.8,69.1,17.4,52.4
		c-5-10-5.9-14.7-12.5-25c1.4,8.6-1.2,5.3-8.1,0.9c3.3,6.4,7.3,13.1,10,19.8c0.9,2.2,6.1,20.7,2.7,19.8
		c-0.2-0.1-13.1-21.6-14.1-23.1c-10.5-15.8,6.8,11.1-5.1,1.2c-11.3-9.4-10-9.7-24-16.1c8.1,8.7,16.3,20.5,20.4,31.7
		c0.5,1.3,6.5,20.9-0.3,10.9c-10.2-15-11.5-24-28.1-36.1c-6-4.4-4.5-3.2-2.2,0.9c4.8,8.8,0.1,10.7-3.5,15
		c6.6,9.7,14.2,19.9,16.8,31.5c0.6,2.6,0.5,8.7-2.8,5.6c-4.3-4-6.8-22-21.3-34.4c-15.3-13.1,0.6,2.8,4.5,13c1.9,4.9,6.2,25.7-3,24.9
		c-9.1-0.9-13.2-21-24.1-28.3c1.9,3.9,11.7,23.9,9.1,26.8c-4.3,4.8-13.3-26.1-12-10c1.8,23.6-5.4,1.4-8.8-5.9l-0.4-0.2l-0.2,2.9
		c0.5,20.5,8.1,23.1,26.3,22.9c35.3-0.5,72.5,0.8,107.3-1.1c8.9-26.8,15.1-62,19.4-90c1.5-9.8,0.5-25.9,10.4-31.3
		c2.3-1.3,3.5-2.9,3.8-4.8c4,1.8,5.4-3.6,5.3-8.5c-0.2-8.2,1.4-10.2,2.2-18C690.2,546.9,690.3,540.5,679.5,533.9z M98.1,447.8
		c-8.8,5.6,1.6,10.7-6.6,9.1c-2.2-0.4-6.2-10.1-7-12.5c-1.1-3.4,5.1-2,8-2C96.9,442.5,96.7,443.5,98.1,447.8z M67.3,312.4
		c-6.4-40.8-11.5-87.3-20.8-127c-0.6-2.5-6.5-16.1-3.3-17.2c9.7-3.5,11.8,33.5,12.9,40.6c5.5,37.3,11.5,74.5,17.3,111.7
		c1.7,11,19,116.6,17.6,118c0,0-8.9,2.3-9.6-1c-0.3-1.7-0.6-20.8-0.8-23.9c-0.6-10.9-1.5-21-3.1-31.8
		C74.1,358.8,70.7,335.6,67.3,312.4z M81.9,493.6c-1.6-9.9-3.2-19.2-4.3-29.2c2.8-1.1,9.3-2.6,11.7-0.3l1.8,2.5
		c6.7,11.6,9,22.8,9.6,36.2c0.1,2.2-8.2,1.7-11.5,2.2C81.7,506.1,83.6,503.7,81.9,493.6z M101.2,602l-1.2,1
		c-9.7,3.2-5.2,2.7-6.4-7.6c-0.9-8-9.9-83.9-9.5-84.7c0,0,5.1-6.4,6.2,0.7C92.4,525.7,101.9,594.2,101.2,602z M116.4,454.2
		c-0.1,5.9,1.3,9.2-5.6,7.3c-4.5-1.3-2.8-8.7-2.8-13.8c-0.1-106.6,1.8-213.4,1.4-319.9c-0.1-22.5-5.2-11-8.6-19.8
		c-8.5-21.6,36.3-13,21.6,1.4c-5.4,5.3-5.7-1.8-5.8,14.4C115.4,233.8,117.7,344,116.4,454.2z M132,532.1c-0.1,16.4-0.3,32.6,0.9,49
		c-9.5,0.5-8.1-1.1-10.3-10.5c-2.5-11.9-2.3-15.2,0-27c7.6,20,6.3,22.1,5.3-2.9c-0.1-2.3-1.6-20.8,0.3-21
		C134.2,519.3,132.1,529.1,132,532.1z M134.2,472.5c-1.5,2.6-5.2,12.3-8.1,21.7c0-7.1,0.2-14,0.6-21.2c2.7-0.8,5.5-1.4,8.3-1.9
		C134.8,471.5,134.5,472,134.2,472.5z M139.4,463c-3.8,0.5-19.2,2.5-17-0.8c0.6-0.9,4.9,0.2,8.1-5.8c0.3-3.7-2.9-6.9,2.1-5.8
		c2.2,0.5,5.4,7.4,7,10.9C139.6,462.1,139.5,462.6,139.4,463z M243.5,575.9c-0.8,0.7-0.9,2.8-0.7,5.3c-20.7-26.6-17.2-21.7,4.5-6.3
		C245.4,575.4,243.5,575.8,243.5,575.9z M185,601.5l-1.3-0.9C184.2,600.9,184.6,601.2,185,601.5z M624.7,398.8
		c4.6-8.8,4-12.1,14.7-13c0.4,11.4,4.2,9.6-2.7,12.7c-6.9,3.1,4.3,9.9-6.7,5.3C625.7,402.1,622.8,402.5,624.7,398.8z M634.8,466
		c-2.4,8.5-3.7-6.8-15.4-6.9c-13.7,1.1-34.3,4.8-5-2.3C623.5,454.6,639,451.2,634.8,466z M628.1,410.7c3.5,2.7,5,15.6-2,10.3
		c-9.2-7.1-20.8-5.5-31.6-3.9c-19.1,3.5-36.3,10.3-55.2,13.8C543,427.2,618.9,403.7,628.1,410.7z M591.4,396
		c1.8-3.2,10.2-16.3,15.6-15.4c0.3,0.5-4.8,12-5.7,14.8c-1.8,6.2-3.8,10.8-11.2,11.1C584.1,406.6,589.5,399.2,591.4,396z
		 M586.4,410.2c-3,3.4-37.9,14.6-43.9,12.6l0.2-0.3C552.4,417.2,575.2,410.3,586.4,410.2z M554.7,397.2c0.1,3,0.9,16.9-1.9,17.7
		c-3.9,1.1-8.4,3.2-11,3.9l-0.2-0.9C542.1,416.5,554.5,390.7,554.7,397.2z M540.6,397.8c-3.1,2.2-3.7,2.1-7.2,1
		c-3-22-14-55-19.9-76.7c0.5-2.7,2.3-3.6,3.5-5.9C519,332.9,535.6,387.2,540.6,397.8z M567,224.7c11.2-14.4,11.9-17.1,15.9-34.6
		c-2.6,18.1-2.9,24.8-13.7,40.2c-2.3,3.3-2.4,1.9-8.1,2.7C539.2,236,559.2,233.2,567,224.7z M551.9,243.5c0.1-2.3-6.3-3.5,2.1-1.4
		c0.6,2.7,0.8,6.4-0.8,8.7c-3.8,5.4-5.5,6.6-11.3,3.9C547.8,254.8,551,248.8,551.9,243.5z M548.9,258.2c2-0.7,2-1.2,3.4-2.7
		c1.9-2,2.6-4,2.7-2.3c0.6,7.7-3.5,8.1-8.5,15c-2.8,3.8-0.3-4.4,0.2-4.9c5-4.9,1.2-0.7-4.5-3.2C536.9,257.7,543.2,259.5,548.9,258.2
		z M301.3,302.7c-5.6-3.1-13.7-16.3-3.5-8.2C300,296.4,312.5,308.8,301.3,302.7z M298.4,288.3c4.1-0.8,5.4,3.3,9.2,6.6
		c4.1,3.7,13.7,12.2,15.7,17C322,313.2,299.9,292.6,298.4,288.3z M320.6,303.6c-3.7-2.3-8.1-7.7-10.2-11.5
		c5.5,0.1,10.6,5.2,13.3,9.5C326.3,307,326,307,320.6,303.6z M371.1,376.7c-2.7-0.4-5.4-0.7-8.1-1.1c-0.3-8.3-1.3-14.5-3.4-19.6
		l0.8,0.3c9.9,4.2,23.9,5.4,21.8,18.7c-0.3,1.8-0.1,3,0.5,3.8C379,378,375.2,377.3,371.1,376.7z M429.8,397.3
		c-2.2-0.4-4.1-0.7-5.7-1c-3.7-2.3-7.4-4.3-11.2-6.3c2.6-3.6,5.2-8.2,6.2-9.7c10.6-16.4,22.6-51.8,26-68.5
		c-0.9-7.9-4.1,9.6-4.6,11.5c-5.3,19.2-16.1,51-30.6,65c-0.3-0.2-0.7-0.3-1-0.5c2.9-3.7,6.5-9.8,7.7-11.6
		c10.6-16.4,22.6-51.8,26-68.5c-0.9-7.9-4.1,9.6-4.6,11.5c-5.3,19.4-16.3,51.7-31.1,65.5c-0.4,0.4-1,0.8-1.6,1.3
		c-3.1-1.3-6.2-2.6-9.3-3.7c0.5,0,1-0.1,1.4-0.3l-0.4-1.7c-7.7-16.9-20.3-30.7-27-47.8c-3.1-8.1-3.6-3.4-8.9-6.1
		c-2.2-1.2-4.5-3.5-6.8-6.1c-6.8-10.9-15.5-21.6-22.3-33.1c-12.5-21.2-20.1-36.2-28.4-59.4c2.7,9.6,11,34,10.8,42.1
		c-7.8-1.3-21.4-13-4,3.9c16.6,16.1,20.1,19.7,30.2,36.6c-4.3-0.1-6.4-3.5-9.4-7c-3.8-4.3-21.9-18.8-22.5-20.3
		c-3.2-7.7,2-2.7-7.3-11.1c-2.1-1.9-5.2-5-7-8.1c5.2-4.5,1.6-6.2,0.3-14.6c-1.4-8.7,0-27.2,9.9-30.4c4.2,4.9,14.1,25.4,19,33.2
		c5.7,9,14.8,25,4.3,3.4c-6.7-13.8-16.9-32-18.9-47.2c-3.6-27.8-2-4.3-8.2,0.1c-3.2-12-1.9-42.8,0-55.7c3.3-22.5,6.5-45.1,16.5-66
		c6.3-13.2,15.3-3.7,27.3-30.8c4.5-10.1,12.1-26.8,23.9-30c23.2-6.5,49.2,1.4,67.3,16.7c12,10.1,22.9,21.4,30.7,35.1l1.6,2.5
		c-8.3-15.8-11.5-22.3-24.9-35c-17.9-16.9-39.9-24.6-64.3-23.7c-5.5,0.2-10,0.9-3.7-5.1c7.8-7.3,28.5-9.3,38.8-9.1
		c11,0.1,19.4,1.2,30.1,2.4l-0.2,0c24.3,4.4,51.6,10.6,66.1,30.4c2.8,4.4,4.4,7.2,5.9,12.3c3.6,12,2.3,22.3-12.5,21.9
		c-17.8-2-41.1-24.8-61.9-32.3c15.5,11.7,22,17.8,32,34.6c9.7,16.3,8.5,24.1,24.1,35.9c13.2,9.9,28.3,18,33.2,35
		c2.8,9.8,4.2,58.9,0.4,76.5c0-1.4,0-3.5,0-6.5c-0.3-17.6,2.5-62.8-6.3-76.4c-7.1-10.8-27.6-26.9-39.6-32.1
		c-7.7,8.6-20.3,31.3-27.8,43c-9.9,15.3,16.4-20.5,16.8-21.1c13.4-20.7,11-24,11.7,6.2c0.2,10,2.2,54.8-5.4,60.5
		c-8.8,6.6-26.9,5.7-34.7,17.7c-1,13.7,11.9,26.2,9.5,47.6c-1.1,10-2.1,16.8-10.1,23.7c19.2-1.4,34.8-7.5,48.7-21.2
		c10.5-10.2,12.8-17.8,22.4-28.2c15.9-16.8,7.5-10.3,10.8-32.4c0.5,0.2,2.5,18.9,3.4,21.4c-0.5,1.8-1.1,3.1-1.8,3.8
		c-8.9,7.9-7.7,6.5-14.4,16.6c-21.4,31.6-36.3,40-73.4,47.2l-1.5,0.3l1.6,0.1c14-0.2,23.7-2.9,36.5-8.2
		c10.2-4.2,23.6-16.1,30.3-24.6c4.7-6.8,14.6-27.7,23.6-27c-0.3,1.9-0.5,5.7-0.9,11c-0.5,5.7-3.6,39.3-0.5,42.4
		c0.4,0.4,0.7,0.7,1,0.9c-0.7,1.4-1.6,3.2-3,5.5c-2.4,4-4.8,7.9-7.2,11.8c-2.4-0.8-4.8-1-7.4-0.2c-7.7,2.3-8.5,6.3-6.9,13.3
		c0.1,0.5-1,2-0.9,2.4c-17.7,23.1-22,38.9-33.5,61.5C461.7,394.5,448.5,400.4,429.8,397.3z M495.2,235.4c-9.2,5.6-28.2,0.2-34-9.3
		c-4.3-7.1-2.8-10,5.8-10.7c7.3-0.3,17.7,0.5,22.9,6.2C492.6,224.3,501.1,231.8,495.2,235.4z M517.2,626.5
		c-4.8-8.5-10.7-17.1-13-21.8c-5.4-11.2-7.9-16.6-4.4-28.2l0.7-2.4c1.7,1.7,3.8,4.3,5.9,8.4c3.6,7.5,6.6,12.3,8.1,20.5
		c0.8,4.4,2,4.5,2.8,10.6c0.1,1.2,1.6,5.7,2.3,8.6C518.8,621.8,518.2,623,517.2,626.5z M574.9,527.5c-0.6,7.3-1.8,3.6-2.8,6.2
		c-2.4,6.5,8.4,4.5,0.7,14.7c-2.9,3.9-3.2,13.2-0.7,17.4c2.9,4.8-3.4,8.8-0.7,19.1c2.2,8.8-1.2,9.7-0.3,19.2c0.5,5.5-7,11.5-10,15.8
		c-9,13,2.4,13.7-11.6,13.4c-5.7-3.2-11.5-5-18.1-2.1c-3,1.3-3.2,7.2-1.4,9.8c-0.2,0.1-0.3,0.3-0.5,0.4c-5.8,5.7-0.2-5.6-6-14.2
		c-1.8-2.7-2.9-4.5-3.7-5.1c-0.3-7.9-0.2-11-2.3-19c-0.9-3.6-1.2-11.9-2.4-17.4c-2.5-12-4.8-16.6-9.1-25.3c1.2-1.8,2.7-4,5-7.3
		c5.6-8,0.7-25.5-3-33.9c-13.7-31-33.4-76-59-103.4c1,0.2,2.1,0.3,3.2,0.4c29.8-2.4,39.5-34.7,52.3-56.7c2.1-3.7,8.6-12,9.5-16.6
		c0.1,0.6,0.1,1.1,0.2,1.5c1.7,7.6,10.2,40.9,12.7,46.6c3.8,8.7,0.3,38.1,3.7,51.4c3.4,13.4,9,21.3,11.6,36.5
		c2.5,18,8.9,28.6,19.4,43.2c3.5,4.9,9.4,7.2,14.7,3.4l0.4-0.3l0,0.1C575.9,525.7,575,526.5,574.9,527.5z M567.8,442.6
		c9.2-2.8,60.3-17.6,65-8.9c1.2,2.2,1.4,6.9,0.8,9.3c-5.8-8-5-8.1-16.9-7.2C600.4,437.3,583.9,440.2,567.8,442.6z M584.2,507.7
		c0.5-1.7,4.2-4.6,8.5-7.6c22.8-8.1,48.8-7.2,62.7-16c4.5,0.7,15.4,0.4,13.1,7c-4.2,11.9-41.2,11.2-53.7,13.9
		c-15.4,3.3-16.8,2.8-0.5,3.9c12.6,0.8,40.7-3.7,48.1-2.1c8.4,1.8,0.7,5.8-0.4,7.2c-2.4,3.1,11.5,5.3,8.2,8.1
		c-4.3,3.5-25.3-7.8-34.4-6c-17.1,3.3-1.8,3.2,6.2,4.4c2.8,0.5,6.4,1.9,10.2,3.5c-12.4-2.3-24.9-2.1-38.2-1.4
		c-4.1,0-16.9-0.4-19.5-6.5c3.9-1.7,7.9-3.2,11.9-4.7c-9.7-0.6-13,0.1-17.9,1.5C585.7,512.3,583,511.8,584.2,507.7z M663.8,535.3
		c-13.1-5-22.2-7.4-38-8c-4.1-0.2-25,0.4-35.8,4.3c1.9-2.8,4.7-4.8,6.4-5.9c3.5-1.2,6.2-2,10.3-2.5c3.8-0.4,6.1-0.6,7.4-0.7
		c13.5,0.5,26.1,1.1,39.3,4.8c0.1,0,15.7,5.2,8.3,4.4C648.7,530.3,657.6,531,663.8,535.3z M620.4,548.8c-12.2,0.3-22.6,3.6-33.3,3.9
		c-1.9-4.7-0.3-11.4,0.9-16.4c30.6-9.1,50.7-8.7,80.3,4.8c1.7,6.7-11.1,5.6-12.2,6.5c1.3,1.3,17.6,14.2,9.5,11.4
		C641.6,550.5,649,548.1,620.4,548.8z M670.3,597.3c-5.3,9.3-9.7,70.7-25.1,102.7c0-0.2,12-52.1,12.8-58.5c0.4-3.4,0.8-6.9,1.2-10.3
		c1.7-16.1,2.3-27,1.9-42.3c-2.1-3-3.9-5.8-4.6-6.7c-9.3-11.2-23-20.5-0.4-7.5c2.5,1.5,4.1,2.5,6.5,4.2
		C667.7,583,674.4,590.1,670.3,597.3z"/>
	<path class="st0" d="M481,650.4c-10.1,1.7-15.4,1.1-23.3,8.3c-5.2,4.7-9.8,28.3-9.3,28.5c5.5-13.9,3.4-11.4,14.5-23.8
		C468.1,658,474.6,654.3,481,650.4z"/>
	<path class="st0" d="M417.7,189.2c0.9-5.5,0.9-8.5,4.6-12.3c11.3-11.5,20-18.5,30.7-31.6c7.4-9.5,14.2-21.5,20.3-32
		c-9.9,13.6-17.9,25.5-29.9,37.7c-3.5,3.5-28.3,24.2-28.5,24.5c-1.2,2.2-2.2,16.4-2,19.5c2,36.6,9.5,56.5,20.7,90.5
		C425.1,256.8,412.7,219.2,417.7,189.2z"/>
	<path class="st0" d="M439.9,275.5c-0.1-0.3-0.2-0.5-0.2-0.8c0.2,0.5,0.3,1.1,0.5,1.6L439.9,275.5z"/>
	<path class="st0" d="M425.2,192.9c0.1-9.5-1.1-8.4,5.5-13.6c9-7.1,13.3-10.9,21.4-18.9c-6.4,4.9-12.7,9.5-19.3,14.2
		c-10.4,7.5-10.1,5.7-10.2,17.4c-0.2,34.7,6.7,50.8,17,82.7C431.1,248,425.1,221.1,425.2,192.9z"/>
</g>
</svg>
